<?xml version="1.0" standalone="no"?>
<svg xmlns="http://www.w3.org/2000/svg" viewBox="0 0 190 56" width="190" height="56"><g fill="#8b50b2" color="#8b50b2" transform="translate(77.204 0) scale(0.6603774) "><svg width="53.0" height="42.0" x="0.0" y="0.0" viewBox="0 0 53 42"><path fill="currentColor" fill-rule="evenodd" d="M41.027 17.147c.666 1.722 1.024 3.47 1.272 5.23-1.925-3.61-3.893-7.174-6.134-10.605l-.014-.022c-.339-1.598-.895-3.177-1.6-4.694 2.906 2.748 5.131 6.616 6.476 10.09zm1.496 7.154c.167 1.667.3 3.354.549 5.02A40.679 40.679 0 0 0 41.815 28c-.999-4.015-3.09-8.213-5.344-11.805.056-.876.054-1.766-.047-2.7 2.2 3.503 4.157 7.13 6.096 10.792.004.007.004.007.003.015zm-.977 8.339c.201-.91.22-1.87.078-2.837a31.37 31.37 0 0 1 1.685 1.976c-.595.279-1.187.563-1.763.861zm-.906.424c-.006.012-.01.015-.012.022-.898.457-1.799.9-2.722 1.29.254-.976.436-1.998.544-3.008.13-1.158-.058-2.369.156-3.504l.006-.004c.195-.175.377-.359.561-.543.516.489 1.017.985 1.512 1.494.395 1.438.413 2.932-.045 4.253zm-6.352 2.53c.38-1.805 1.071-3.53 1.17-5.41a21.393 21.393 0 0 0 2.304-1.6c-.04.747.005 1.517-.022 2.272-.042 1.291-.36 2.7-.72 3.892-.882.339-1.789.63-2.732.846zm-2.238.332c-.365.024-.736.038-1.109.03.357-1.27.762-2.516.941-3.846a39.63 39.63 0 0 0 2.788-1.457c-.195 1.744-.864 3.383-1.185 5.102-.47.071-.945.131-1.435.171zm-4.295-.204c.137-.712.433-1.359.7-2.017.838-.386 1.705-.776 2.601-1.185-.215 1.175-.59 2.286-.899 3.43a23.54 23.54 0 0 1-2.402-.228zm-2.496-.514c.735-.294 1.457-.658 2.154-.997-.174.442-.33.888-.407 1.387a37 37 0 0 1-1.747-.39zm-3.094-.97a39.558 39.558 0 0 1-3.243-1.36c-4.295-2.026-7.594-5.142-10.285-9.157.586.014 1.142-.1 1.69-.277 3.376 4.584 8.814 8.46 13.96 10.541-.74.227-1.466.33-2.122.253zM7.532 21.972c4.484-2.701 9.051-5.279 13.429-8.15l.302.149.004.005c.133.068.258.124.392.19.054.002.114.01.176 0a.374.374 0 0 1-.064.057c-2.224 1.952-4.821 3.275-7.333 4.828-1.86 1.143-4.288 3.913-6.852 3.002-.038-.006-.079-.026-.115-.04l.061-.04zm-.73-1.269c4.113-2.656 8.41-5.015 12.531-7.669.267.126.521.251.78.375-4.247 2.76-8.656 5.248-12.988 7.871l-.324-.577zm-1.196-2.231c3.647-2.122 7.124-4.51 10.629-6.855.76.324 1.505.668 2.245 1.014-3.98 2.53-8.117 4.813-12.075 7.366a87.29 87.29 0 0 1-.8-1.525zm-1.343-2.686c1.05-.403 1.897-1.19 2.856-1.812 1.855-1.202 3.876-2.809 5.985-3.629.753.275 1.5.578 2.245.89-3.336 2.233-6.646 4.496-10.11 6.525a94.43 94.43 0 0 1-.976-1.974zm-.375-.767c-.244-.498-.45-.99-.63-1.475 2.475-1.14 4.518-2.987 6.972-4.176.61.178 1.222.384 1.825.595-1.126.593-2.138 1.39-3.245 2.032-1.445.829-3.166 2.54-4.889 3.094-.01-.023-.023-.045-.033-.07zM2.43 10.774a24.31 24.31 0 0 0 4.1-2.29 28.83 28.83 0 0 1 2.595.572c-2.099 1.162-3.955 2.72-6.138 3.737a24.28 24.28 0 0 1-.557-2.02zM1.855 8.16a19.447 19.447 0 0 1 3.487.143A23.56 23.56 0 0 1 2.247 9.98c-.129-.59-.254-1.197-.392-1.82zM5.86 5.32c.54.627 1.148 1.192 1.709 1.79a24.515 24.515 0 0 0-4.634-.53c.852-.588 1.878-.953 2.925-1.26zm2.411-.664C9.224 5.738 10.12 6.866 11.017 8c-.765-.229-1.53-.45-2.275-.621-.654-.807-1.44-1.496-2.13-2.264.567-.15 1.126-.298 1.66-.458zm3.283-.955c1.628 2.317 3.49 4.408 5.355 6.513a55.274 55.274 0 0 0-4.677-1.818c-1.066-1.333-2.109-2.673-3.219-3.96.843-.266 1.69-.503 2.54-.735zm2.852-.677c1.75 2.422 3.832 4.576 5.482 7.08.018.027.032.049.054.072.197.56.395 1.142.578 1.711-.67-.33-1.358-.65-2.046-.968-.007-.011-.012-.008-.012-.008-2.121-2.416-4.306-4.766-6.176-7.388.699-.183 1.404-.35 2.12-.5zm1.939-.373a33.828 33.828 0 0 1 2.594 4.941c-1.242-1.587-2.576-3.099-3.78-4.734.388-.08.783-.15 1.186-.207zm7.006 10.67c-.342-.177-.695-.36-1.054-.542-.138-.473-.29-.955-.446-1.433 1.927-.809 3.644-2.034 5.56-2.89 1.703-.758 3.438-1.47 5.13-2.244.389.727.726 1.458 1.024 2.199-3.183 1.952-6.847 3.285-10.214 4.91zm7.518-.892c-1.66.933-3.573 1.459-5.419 2.002-.394-.203-.8-.423-1.208-.64 3.194-1.517 6.601-2.796 9.625-4.612.153.426.298.857.422 1.287-1.168.613-2.27 1.315-3.42 1.963zm-1.329 4.538a40.114 40.114 0 0 0-3.118-1.986c1.395-.446 2.771-.918 4.11-1.498 1.395-.609 2.65-1.489 3.987-2.215.197.754.362 1.521.486 2.308.036.256.073.518.09.778-1.724 1.123-3.509 2.145-5.555 2.613zm5.289 1.359c-.761.49-1.846.707-2.772.399a.29.29 0 0 0-.183-.01c-.49-.389-.988-.78-1.49-1.144 1.72-.468 3.26-1.329 4.747-2.278 0 1.031-.132 2.034-.302 3.033zm2.402 3.493c-.3-.84-.785-1.596-1.114-2.425.093-.675.19-1.346.258-2.01 1.794 2.965 3.442 6.333 4.417 9.603-.92-.893-1.854-1.764-2.77-2.637-.295-.842-.492-1.697-.79-2.53zm-1.46.335c.052-.492.106-.97.167-1.438.158.306.326.629.469.945.247.543.404 1.097.56 1.668-.132-.128-.254-.25-.375-.37-.273-.277-.544-.54-.818-.8l-.004-.005zm-1.35-1.27a47.01 47.01 0 0 0-1.417-1.237 4.282 4.282 0 0 0 1.659-.326c-.093.512-.18 1.035-.241 1.564zm-3.379 1.557c-3.05-2.038-5.466-4.57-8.125-7.101.126-.116.258-.234.388-.344.243.119.488.242.726.364 4.032 2.023 7.564 4.781 10.91 7.974.983.946 2.022 1.893 3.073 2.878a7.173 7.173 0 0 1-.528.49c-2.05-1.555-4.311-2.847-6.444-4.261zm-10.289-5.392c.556-.4 1.1-.808 1.621-1.248 2.128 2.039 4.107 4.262 6.491 5.983 2.614 1.894 5.478 3.445 8.063 5.398a19.38 19.38 0 0 1-1.88 1.295C29.9 25.806 25.04 21.175 20.752 17.05zm-1.925 1.28c.442-.287.887-.575 1.322-.871 4.254 4.087 9.03 8.673 14.152 11.452-.436.252-.884.487-1.335.717-4.582-3.977-10.374-6.274-14.14-11.299zm3.995 7.876c-2.456-1.86-5.025-3.583-6.993-6.024.796-.498 1.599-.985 2.394-1.474 3.753 5.017 9.453 7.36 14.056 11.268-.631.327-1.272.637-1.883.965-2.596-.858-5.393-3.083-7.574-4.735zm4.173 6.624c-.532.283-1.09.546-1.65.777-5.204-1.903-10.865-5.776-14.335-10.431.763-.344 1.495-.815 2.194-1.295 1.975 2.87 4.238 5.153 7.139 7.027 1.674 1.084 3.422 1.901 5.058 3.04.546.382 1.053.674 1.594.882zm-5.355-4.016c-3.243-1.755-5.731-4.254-7.85-7.33.476-.316.954-.627 1.432-.929 2.021 2.522 4.634 4.27 7.161 6.214 2.11 1.624 4.634 3.617 7.137 4.639-.037.018-.074.042-.111.06-.421.225-.933.526-1.5.857-2.037-.434-4.446-2.518-6.27-3.51zM28.727 3.54c.722.25 1.439.549 2.141.889.33.169.656.34.963.525.222.131.432.263.644.417-.105.046-.218.09-.32.142-1.661.747-3.368 1.431-5.023 2.19-1.883.864-3.633 2.08-5.536 2.887a45.415 45.415 0 0 0-.961-2.604c2.598-1.719 5.282-3.083 8.092-4.446zm-9.194 1.935c1.656-1.03 3.463-1.805 5.169-2.753a.262.262 0 0 0 .15-.176c.932.157 1.863.36 2.78.635-2.525 1.236-4.951 2.5-7.309 4.05a36.675 36.675 0 0 0-.79-1.756zm-1.656-3.044c1.887-.207 3.816-.247 5.748-.04-1.488.787-3.025 1.475-4.456 2.356a30.958 30.958 0 0 0-1.292-2.316zm15.046 1.602c-.19-.13-.38-.252-.574-.371l-.004-.005a16.557 16.557 0 0 0-2.459-1.292C25.113.322 19.99.485 15.303 1.232c-2.835.457-5.573 1.29-8.279 2.134-.53.175-1.064.32-1.595.463-.049.017-.098.035-.151.047-1.89.55-3.665 1.148-4.83 2.907-.185.108-.289.331-.214.655.533 2.4.65 4.534 1.73 6.826a127.249 127.249 0 0 0 3.989 7.764c.146.26.288.514.437.757.087.152.174.304.26.44 2.577 4.254 5.796 7.664 10.068 10.148a29.311 29.311 0 0 0 3.86 1.873c.358.151.713.287 1.078.417 0 0 .005-.002.008.003a31.383 31.383 0 0 0 8.778 1.81c5.466.34 9.433-2.413 14.03-4.475 2.55 2.613 4.601 5.586 6.634 8.636.58.87 1.758.088 1.176-.783-2.22-3.329-4.486-6.587-7.338-9.386-1.438-5.703-.663-11.478-3.522-17.012-2.147-4.145-4.82-7.91-8.5-10.423z"></path></svg></g><line x1="78.25399999999999" y1="33.73584905660377" x2="111.154" y2="33.73584905660377" stroke="#8b50b2" stroke-linecap="round"></line><path fill="#8b50b2" fill-rule="nonzero" d="M0 0.41L1.92 0.41L6.22 13.01L10.46 0.41L12.38 0.41L6.91 15.60L5.47 15.60L0 0.41ZM23.33 10.18L23.33 10.18Q23.33 12.77 21.70 14.42L21.70 14.42Q20.23 15.89 18.10 15.89L18.10 15.89Q15.62 15.89 14.11 14.02L14.11 14.02Q12.84 12.43 12.84 10.18L12.84 10.18Q12.84 7.54 14.42 5.90L14.42 5.90Q15.86 4.42 18.10 4.42L18.10 4.42Q20.62 4.42 22.10 6.31L22.10 6.31Q23.33 7.90 23.33 10.18ZM14.57 10.18L14.57 10.18Q14.57 12.26 15.65 13.49L15.65 13.49Q16.61 14.57 18.07 14.57L18.07 14.57Q19.66 14.57 20.63 13.36Q21.60 12.14 21.60 10.18L21.60 10.18Q21.60 8.11 20.54 6.86L20.54 6.86Q19.58 5.71 18.10 5.71L18.10 5.71Q16.51 5.71 15.54 6.95Q14.57 8.18 14.57 10.18ZM26.35 0.98L27.96 0.12L27.96 15.60L26.35 15.60L26.35 0.98ZM38.90 4.70L40.49 4.70L40.49 15.60L39.24 15.60L39.10 14.35L39.02 14.38Q37.56 15.89 35.47 15.89L35.47 15.89Q33.72 15.89 32.71 14.65Q31.70 13.42 31.70 11.23L31.70 11.23L31.70 4.70L33.31 4.70L33.31 10.94Q33.31 14.47 35.95 14.47L35.95 14.47Q36.77 14.47 37.60 14.06Q38.42 13.66 38.90 13.01L38.90 13.01L38.90 4.70ZM53.40 9.10L53.40 15.60L51.82 15.60L51.82 9.22Q51.82 5.81 48.84 5.81L48.84 5.81Q47.98 5.81 47.14 6.22Q46.30 6.62 45.84 7.25L45.84 7.25L45.84 15.60L44.23 15.60L44.23 4.70L45.58 4.70L45.72 5.86L45.79 5.86Q47.21 4.42 49.34 4.42L49.34 4.42Q53.40 4.42 53.40 9.10L53.40 9.10ZM62.52 6.02L59.18 6.02L59.16 12.84Q59.16 14.59 60.58 14.59L60.58 14.59Q61.37 14.59 62.14 14.18L62.14 14.18L62.71 15.07Q61.54 15.89 60.24 15.89L60.24 15.89Q58.97 15.89 58.27 15.10Q57.58 14.30 57.58 12.89L57.58 12.89L57.58 6.02L55.92 6.02L55.92 4.70L57.60 4.70L57.60 2.33L59.18 1.51L59.18 4.70L62.52 4.70L62.52 6.02ZM73.58 8.98L73.58 15.60L72.38 15.60L72.14 14.42Q70.68 15.89 68.50 15.89L68.50 15.89Q66.84 15.89 65.86 14.96Q64.87 14.04 64.87 12.50L64.87 12.50Q64.87 8.76 70.34 8.76L70.34 8.76L72 8.76L72 8.62Q72 5.76 69.22 5.76L69.22 5.76Q67.63 5.76 66.17 6.82L66.17 6.82L65.64 5.93Q67.30 4.42 69.67 4.42L69.67 4.42Q71.57 4.42 72.58 5.59Q73.58 6.77 73.58 8.98L73.58 8.98ZM72 12.89L72 9.94L70.54 9.94Q66.60 9.94 66.60 12.36L66.60 12.36Q66.60 13.39 67.21 13.98Q67.82 14.57 68.93 14.57L68.93 14.57Q69.89 14.57 70.78 14.09Q71.66 13.61 72 12.89L72 12.89ZM84.38 5.64L84.38 5.64L83.06 6.55Q82.25 5.83 81.31 5.83L81.31 5.83Q79.94 5.83 78.89 7.25L78.89 7.25L78.89 15.60L77.28 15.60L77.28 4.70L78.65 4.70L78.79 5.86L78.84 5.86Q80.26 4.42 81.74 4.42L81.74 4.42Q83.50 4.42 84.38 5.64ZM86.57 4.70L88.15 4.70L88.15 15.60L86.57 15.60L86.57 4.70ZM86.33 1.15L86.33 1.15Q86.33 0.74 86.64 0.43Q86.95 0.12 87.38 0.12L87.38 0.12Q87.82 0.12 88.13 0.43Q88.44 0.74 88.44 1.15L88.44 1.15Q88.44 1.61 88.13 1.91Q87.82 2.21 87.38 2.21L87.38 2.21Q86.93 2.21 86.63 1.91Q86.33 1.61 86.33 1.15ZM101.78 10.18L101.78 10.18Q101.78 12.77 100.15 14.42L100.15 14.42Q98.69 15.89 96.55 15.89L96.55 15.89Q94.08 15.89 92.57 14.02L92.57 14.02Q91.30 12.43 91.30 10.18L91.30 10.18Q91.30 7.54 92.88 5.90L92.88 5.90Q94.32 4.42 96.55 4.42L96.55 4.42Q99.07 4.42 100.56 6.31L100.56 6.31Q101.78 7.90 101.78 10.18ZM93.02 10.18L93.02 10.18Q93.02 12.26 94.10 13.49L94.10 13.49Q95.06 14.57 96.53 14.57L96.53 14.57Q98.11 14.57 99.08 13.36Q100.06 12.14 100.06 10.18L100.06 10.18Q100.06 8.11 99 6.86L99 6.86Q98.04 5.71 96.55 5.71L96.55 5.71Q94.97 5.71 94.00 6.95Q93.02 8.18 93.02 10.18ZM111.05 5.45L110.52 6.34Q109.32 5.71 107.90 5.71L107.90 5.71Q106.94 5.71 106.40 6.13Q105.86 6.55 105.86 7.27L105.86 7.27Q105.86 8.04 106.36 8.46Q106.85 8.88 108.24 9.29L108.24 9.29Q110.21 9.89 110.98 10.63Q111.74 11.38 111.74 12.72L111.74 12.72Q111.74 14.14 110.68 15.01Q109.61 15.89 107.93 15.89L107.93 15.89Q105.72 15.89 104.09 14.69L104.09 14.69Q104.16 14.57 104.33 14.28L104.33 14.28Q104.50 13.97 104.62 13.80L104.62 13.80Q106.01 14.57 107.62 14.57L107.62 14.57Q110.14 14.57 110.14 12.67L110.14 12.67Q110.14 11.90 109.60 11.47Q109.06 11.04 107.59 10.66L107.59 10.66Q104.18 9.70 104.18 7.32L104.18 7.32Q104.18 6.05 105.18 5.23Q106.18 4.42 107.74 4.42L107.74 4.42Q109.58 4.42 111.05 5.45L111.05 5.45ZM120.82 15.58L120.82 15.58L120.82 0.41Q122.76 0.12 124.73 0.12L124.73 0.12Q127.49 0.12 128.81 1.44L128.81 1.44Q129.84 2.50 129.84 4.22L129.84 4.22Q129.84 5.42 129.11 6.31Q128.38 7.20 127.18 7.49L127.18 7.49L127.18 7.51Q128.64 7.75 129.48 8.84Q130.32 9.94 130.32 11.59L130.32 11.59Q130.32 13.78 128.62 14.90L128.62 14.90Q127.15 15.89 124.73 15.89L124.73 15.89Q122.95 15.89 120.82 15.58ZM122.59 1.70L122.59 1.70L122.59 6.82L125.09 6.82Q126.38 6.82 127.19 6.16Q127.99 5.50 127.99 4.39L127.99 4.39Q127.99 1.54 124.68 1.54L124.68 1.54Q123.41 1.54 122.59 1.70ZM125.09 8.30L122.59 8.30L122.59 14.30Q123.60 14.45 124.94 14.45L124.94 14.45Q128.42 14.45 128.42 11.57L128.42 11.57Q128.42 10.03 127.55 9.17Q126.67 8.30 125.09 8.30L125.09 8.30ZM142.25 10.18L142.25 10.70L134.47 10.70Q134.57 12.46 135.68 13.51Q136.80 14.57 138.58 14.57L138.58 14.57Q140.06 14.57 141.48 13.68L141.48 13.68L142.03 14.64Q140.45 15.89 138.22 15.89L138.22 15.89Q135.62 15.89 134.09 14.18L134.09 14.18Q132.67 12.65 132.67 10.20L132.67 10.20Q132.67 7.66 134.18 5.95L134.18 5.95Q135.55 4.42 137.57 4.42L137.57 4.42Q139.99 4.42 141.26 6.38L141.26 6.38Q142.25 7.92 142.25 10.18L142.25 10.18ZM134.45 9.41L134.45 9.41L140.59 9.41Q140.52 7.66 139.74 6.67Q138.96 5.69 137.59 5.69L137.59 5.69Q136.30 5.69 135.42 6.72Q134.54 7.75 134.45 9.41ZM145.27 0.98L146.88 0.12L146.88 15.60L145.27 15.60L145.27 0.98ZM156.36 6.02L153.02 6.02L153 12.84Q153 14.59 154.42 14.59L154.42 14.59Q155.21 14.59 155.98 14.18L155.98 14.18L156.55 15.07Q155.38 15.89 154.08 15.89L154.08 15.89Q152.81 15.89 152.11 15.10Q151.42 14.30 151.42 12.89L151.42 12.89L151.42 6.02L149.76 6.02L149.76 4.70L151.44 4.70L151.44 2.33L153.02 1.51L153.02 4.70L156.36 4.70L156.36 6.02ZM166.54 5.64L166.54 5.64L165.22 6.55Q164.40 5.83 163.46 5.83L163.46 5.83Q162.10 5.83 161.04 7.25L161.04 7.25L161.04 15.60L159.43 15.60L159.43 4.70L160.80 4.70L160.94 5.86L160.99 5.86Q162.41 4.42 163.90 4.42L163.90 4.42Q165.65 4.42 166.54 5.64ZM176.35 8.98L176.35 15.60L175.15 15.60L174.91 14.42Q173.45 15.89 171.26 15.89L171.26 15.89Q169.61 15.89 168.62 14.96Q167.64 14.04 167.64 12.50L167.64 12.50Q167.64 8.76 173.11 8.76L173.11 8.76L174.77 8.76L174.77 8.62Q174.77 5.76 171.98 5.76L171.98 5.76Q170.40 5.76 168.94 6.82L168.94 6.82L168.41 5.93Q170.06 4.42 172.44 4.42L172.44 4.42Q174.34 4.42 175.34 5.59Q176.35 6.77 176.35 8.98L176.35 8.98ZM174.77 12.89L174.77 9.94L173.30 9.94Q169.37 9.94 169.37 12.36L169.37 12.36Q169.37 13.39 169.98 13.98Q170.59 14.57 171.70 14.57L171.70 14.57Q172.66 14.57 173.54 14.09Q174.43 13.61 174.77 12.89L174.77 12.89ZM172.78 0L174.53 0L172.49 2.69L171.48 2.69L172.78 0ZM189.41 9.10L189.41 15.60L187.82 15.60L187.82 9.22Q187.82 5.81 184.85 5.81L184.85 5.81Q183.98 5.81 183.14 6.22Q182.30 6.62 181.85 7.25L181.85 7.25L181.85 15.60L180.24 15.60L180.24 4.70L181.58 4.70L181.73 5.86L181.80 5.86Q183.22 4.42 185.35 4.42L185.35 4.42Q189.41 4.42 189.41 9.10L189.41 9.10Z" transform="translate(0, 39.736)"></path></svg>